<svg xmlns="http://www.w3.org/2000/svg" width="256" height="256" viewBox="0 0 256 256">
  <rect width="256" height="256" rx="54" fill="#ad1457"/>
  <path d="M41 117c0 59 38 101 87 101s87-42 87-101H41z" fill="#2e7d32"/>
  <path d="M52 117c0 50 33 88 76 88s76-38 76-88H52z" fill="#ffffff"/>
  <path d="M61 117c0 44 29 77 67 77s67-33 67-77H61z" fill="#e91e63"/>
  <g fill="#171717">
    <ellipse cx="91" cy="142" rx="5" ry="9" transform="rotate(-28 91 142)"/>
    <ellipse cx="128" cy="156" rx="5" ry="9"/>
    <ellipse cx="165" cy="142" rx="5" ry="9" transform="rotate(28 165 142)"/>
  </g>
  <rect x="63" y="39" width="130" height="90" rx="14" fill="#ffffff"/>
  <path d="M63 67h130v16H63z" fill="#d81b60"/>
  <g fill="#2e7d32">
    <rect x="86" y="29" width="13" height="26" rx="6"/>
    <rect x="157" y="29" width="13" height="26" rx="6"/>
  </g>
  <g fill="#ad1457">
    <rect x="81" y="93" width="20" height="16" rx="3"/>
    <rect x="118" y="93" width="20" height="16" rx="3"/>
    <rect x="155" y="93" width="20" height="16" rx="3"/>
  </g>
</svg>
